<?xml version="1.0" encoding="utf-8"?>
<!-- Generator: Adobe Illustrator 24.2.0, SVG Export Plug-In . SVG Version: 6.00 Build 0)  -->
<svg version="1.1" id="Calque_1" focusable="false" xmlns="http://www.w3.org/2000/svg" xmlns:xlink="http://www.w3.org/1999/xlink"
	 x="0px" y="0px" viewBox="0 0 512 512" style="enable-background:new 0 0 512 512;" xml:space="preserve">
<style type="text/css">
	.st0{fill:#1A237E;}
</style>
<path class="st0" d="M488.6,250.2L392,214V105.5c0-15-9.3-28.4-23.4-33.7l-100-37.5c-8.1-3.1-17.1-3.1-25.3,0l-100,37.5
	c-14.1,5.3-23.4,18.7-23.4,33.7V214l-96.6,36.2C9.3,255.5,0,268.9,0,283.9V394c0,13.6,7.7,26.1,19.9,32.2l100,50
	c10.1,5.1,22.1,5.1,32.2,0l103.9-52l103.9,52c10.1,5.1,22.1,5.1,32.2,0l100-50c12.2-6.1,19.9-18.6,19.9-32.2V283.9
	C512,268.9,502.7,255.5,488.6,250.2z M358,214.8l-85,31.9v-68.2l85-37V214.8z M154,104.1l102-38.2l102,38.2v0.6l-102,41.4l-102-41.4
	C154,104.7,154,104.1,154,104.1z M238,395.2l-85,42.5v-79.1l85-38.8V395.2z M238,283.2l-102,41.4L34,283.2v-0.6l102-38.2l102,38.2
	V283.2z M478,395.2l-85,42.5v-79.1l85-38.8V395.2z M478,283.2l-102,41.4l-102-41.4v-0.6l102-38.2l102,38.2V283.2z"/>
</svg>
