<svg id="Calque_1" data-name="Calque 1" xmlns="http://www.w3.org/2000/svg" viewBox="0 0 500 500"><defs><style>.cls-1{fill:#e0e0e0;}.cls-2{fill:none;stroke:#e0e0e0;stroke-miterlimit:10;stroke-width:8px;}</style></defs><path class="cls-1" d="M328.67,220.5H281.84l-43.06-84.78a6.47,6.47,0,0,0-5.7-3.72H206.25c-4.36,0-7.5,4.69-6.31,9.4L220,220.5H177.89L160.19,194a6.35,6.35,0,0,0-5.25-2.95H138.56c-4.27,0-7.4,4.51-6.36,9.16L145.11,250,132.2,299.84c-1,4.65,2.09,9.16,6.36,9.16h16.38a6.34,6.34,0,0,0,5.25-2.95l17.7-26.55H220l-20.09,79.1c-1.19,4.71,1.95,9.4,6.31,9.4h26.83a6.46,6.46,0,0,0,5.69-3.72l43.07-84.78h46.83c14.48,0,39.33-13.21,39.33-29.5S343.15,220.5,328.67,220.5Z"/><ellipse class="cls-2" cx="240.08" cy="250" rx="197.16" ry="204.98"/></svg>